<svg width="160" height="210" viewBox="0 0 160 210" fill="none" xmlns="http://www.w3.org/2000/svg">
<path opacity="0.1" d="M56.75 117L65.5 88.5L42.5 70H71L80 42L89 70H117.5L94.25 88.5L103 117L80 99.25L56.75 117ZM20 210V132.75C13.6667 125.75 8.75 117.75 5.25 108.75C1.75 99.75 0 90.1667 0 80C0 57.6667 7.75 38.75 23.25 23.25C38.75 7.75 57.6667 0 80 0C102.333 0 121.25 7.75 136.75 23.25C152.25 38.75 160 57.6667 160 80C160 90.1667 158.25 99.75 154.75 108.75C151.25 117.75 146.333 125.75 140 132.75V210L80 190L20 210ZM80 140C96.6667 140 110.833 134.167 122.5 122.5C134.167 110.833 140 96.6667 140 80C140 63.3333 134.167 49.1667 122.5 37.5C110.833 25.8333 96.6667 20 80 20C63.3333 20 49.1667 25.8333 37.5 37.5C25.8333 49.1667 20 63.3333 20 80C20 96.6667 25.8333 110.833 37.5 122.5C49.1667 134.167 63.3333 140 80 140ZM40 180.25L80 170L120 180.25V149.25C114.167 152.583 107.875 155.208 101.125 157.125C94.375 159.042 87.3333 160 80 160C72.6667 160 65.625 159.042 58.875 157.125C52.125 155.208 45.8333 152.583 40 149.25V180.25Z" fill="white"/>
</svg>
