<svg xmlns="http://www.w3.org/2000/svg" viewBox="0 0 40 48" fill="none" role="img" aria-label="Gidira">
  <path
    d="M30.594 30.7253C27.8473 30.7087 25.1005 30.6887 22.3538 30.6721C22.0105 28.6138 21.9738 26.5056 22.2438 24.4373C27.5406 24.404 32.8374 24.3741 38.1375 24.3408C38.0942 29.1425 38.0508 33.9442 38.0108 38.7425C38.0108 39.0817 38.0008 39.4342 37.8475 39.7368C37.7175 39.9928 37.4975 40.1857 37.2775 40.3719C31.7474 45.0039 23.9338 46.7763 16.937 44.9873C13.2103 44.033 9.69021 42.0844 7.17682 39.1781C4.64343 36.2486 3.22674 32.4678 2.74006 28.6337C2.22338 24.5769 2.72673 20.3439 4.51676 16.6662C6.39347 12.8122 9.69354 9.68313 13.617 7.95068C18.0037 6.01538 23.3838 5.77596 27.9773 7.08944C31.9407 8.22335 35.5708 10.7173 37.7041 14.2354C35.9141 15.8282 33.8807 17.145 31.6974 18.1326C29.6073 14.9304 25.8772 12.8421 22.0471 12.7823C18.2171 12.7224 14.4036 14.7176 12.3136 17.9198C10.8236 20.2042 10.2136 22.9775 10.2002 25.7009C10.1836 29.1225 11.1436 32.6606 13.447 35.1978C15.417 37.3692 18.2671 38.6627 21.1871 38.952C24.1072 39.2413 27.0839 38.5663 29.7073 37.2561C29.974 37.1231 30.2507 36.9701 30.4073 36.7174C30.5573 36.4747 30.574 36.1721 30.584 35.8861C30.6473 34.167 30.6507 32.4478 30.594 30.7253Z"
    fill="#E82C3D"
  />
</svg>
