<svg
  xmlns="http://www.w3.org/2000/svg"
  viewBox="0 0 103 32"
  fill="none"
  role="img"
  aria-hidden="true"
  preserveAspectRatio="xMinYMid meet"
>
  <g id="gidira-logo-footer">
    <path
      d="M20.3302 20.4835C18.505 20.4725 16.6797 20.4592 14.8545 20.4481C14.6263 19.0759 14.602 17.6704 14.7814 16.2915C18.3012 16.2693 21.821 16.2494 25.343 16.2272C25.3142 19.4283 25.2854 22.6294 25.2588 25.8283C25.2588 26.0545 25.2522 26.2894 25.1503 26.4912C25.0639 26.6619 24.9177 26.7904 24.7715 26.9146C21.0966 30.0026 15.9044 31.1842 11.2549 29.9915C8.77845 29.3553 6.4393 28.0563 4.76911 26.1187C3.08564 24.1657 2.14422 21.6452 1.82081 19.0892C1.47747 16.3846 1.81195 13.5626 3.00146 11.1108C4.24856 8.54146 6.44151 6.45542 9.04869 5.30045C11.9638 4.01025 15.5389 3.85064 18.5913 4.72629C21.2251 5.48223 23.6373 7.14486 25.055 9.49027C23.8655 10.5521 22.5143 11.43 21.0634 12.0884C19.6745 9.95359 17.1958 8.56141 14.6507 8.52151C12.1055 8.48161 9.57145 9.81171 8.18258 11.9465C7.19243 13.4695 6.78707 15.3183 6.77821 17.1339C6.76714 19.415 7.40508 21.7737 8.93572 23.4652C10.2448 24.9128 12.1388 25.7751 14.0792 25.968C16.0196 26.1609 17.9977 25.7108 19.741 24.8374C19.9182 24.7487 20.102 24.6468 20.2062 24.4783C20.3058 24.3165 20.3169 24.1147 20.3236 23.9241C20.3656 22.778 20.3679 21.6319 20.3302 20.4835Z"
      fill="#FDFEFF"
    />
    <path
      d="M55.938 1.738V9.97575L55.5946 10.3548L49.9705 16.5376C47.8196 14.2786 44.3773 13.9993 42.5299 16.5886C40.955 18.8032 40.9905 22.4188 42.7094 24.5603C44.7517 27.1074 48.524 26.3316 50.2274 23.862C52.0349 21.2484 53.4858 18.7012 55.7851 16.3026L55.8471 30.047C54.1792 30.0425 52.89 30.242 51.3881 30.0048C50.7878 29.9073 51.1312 28.6903 50.7878 28.0895C48.7145 30.1911 46.0808 30.9204 42.9863 30.2731C36.8837 28.9984 35.0429 21.0222 37.2491 15.4668C38.2747 12.8776 40.5851 11.1618 42.6939 10.6741C45.7994 9.96467 48.3402 10.5255 50.7214 12.5694L50.8543 1.69144C52.5732 1.43873 54.1083 1.33232 55.9402 1.738H55.938Z"
      fill="#FDFEFF"
    />
    <path
      d="M55.5946 10.3548C55.5902 10.3703 55.5835 10.3814 55.5791 10.397L49.9705 16.5398L55.5946 10.357V10.3548Z"
      fill="#FDFEFF"
    />
    <path
      d="M85.7204 29.0671C83.7468 27.7171 83.3392 25.385 83.729 23.4186C84.7502 18.2645 92.3126 18.5305 96.0494 17.8056C96.7538 15.9834 94.6583 14.3252 92.9018 14.303C90.8727 14.2786 89.2336 14.8905 88.6864 17.0186C87.1071 17.0807 85.7536 17.1561 84.0281 16.9255C84.316 11.0664 91.2139 9.52796 96.0915 10.8182C99.1639 11.6295 101.226 14.2232 101.235 17.4288L101.268 29.9782C99.5936 30.2021 98.1183 30.0492 96.4836 30.0913C96.2621 29.3509 96.5988 28.8388 96.251 28.0873C93.5021 30.7963 89.1073 31.3815 85.7226 29.0671H85.7204ZM91.2515 26.6597C94.3859 26.6929 96.6697 24.4406 96.1602 21.4324C93.7457 21.5831 87.7362 21.6895 88.7108 25.2342C88.9633 26.1542 89.8449 26.6463 91.2493 26.6619L91.2515 26.6597Z"
      fill="#FDFEFF"
    />
    <path
      d="M74.5692 29.9849C72.8547 30.1911 71.282 30.1334 69.6428 29.9805L69.4855 10.878L74.1417 10.8403C74.5913 11.41 74.248 12.0529 74.7663 12.9197C76.6558 10.7428 79.5664 10.0777 82.4793 10.5876C82.6632 12.1327 82.5967 13.5382 82.548 15.2008C80.6075 15.1277 78.8864 14.6932 77.2118 15.8703C73.2313 18.6657 74.9989 24.7886 74.5692 29.9849Z"
      fill="#FDFEFF"
    />
    <path
      d="M33.2704 10.8248L28.1934 10.8319L28.2203 30.0918L33.2973 30.0847L33.2704 10.8248Z"
      fill="#FDFEFF"
    />
    <path
      d="M65.2901 10.8204H60.2375V30.0824H65.2901V10.8204Z"
      fill="#FDFEFF"
    />
    <path
      d="M49.572 23.1991C47.7889 26.03 46.3624 21.1862 43.8615 18.874C43.4229 18.4683 43.3764 17.79 43.6577 17.4331C44.9336 15.8059 47.2794 19.2775 48.2917 20.162C49.5455 18.2511 57.728 8.4948 59.1191 9.84264C59.3141 10.0311 59.458 10.552 59.1147 10.9156C55.5085 14.7219 52.3874 18.7344 49.572 23.2013V23.1991Z"
      fill="#158DE0"
    />
    <path
      d="M61.4555 2.66252C63.0481 1.89993 64.8645 2.53838 65.4471 4.14115C65.8702 5.30277 65.58 7.12723 63.8367 7.77233C62.7646 8.16914 61.07 7.88982 60.3878 6.71711C59.5926 5.35376 59.7964 3.45615 61.4555 2.66252Z"
      fill="#FDFEFF"
    />
    <path
      d="M29.5121 2.65145C31.1535 1.87999 32.7418 2.64037 33.3753 4.00594C33.9866 5.32052 33.4528 7.03635 32.0462 7.7546C30.8013 8.38862 29.2397 7.81224 28.4467 6.75259C27.5119 5.50673 27.9173 3.40518 29.5144 2.65367L29.5121 2.65145Z"
      fill="#FDFEFF"
    />
  </g>
</svg>
