<svg
  xmlns="http://www.w3.org/2000/svg"
  viewBox="0 0 155 48"
  fill="none"
  role="img"
  aria-hidden="true"
  preserveAspectRatio="xMinYMid meet"
>
  <g id="gidira-logo-header">
    <path
      d="M30.594 30.7253C27.8473 30.7087 25.1005 30.6887 22.3538 30.6721C22.0105 28.6138 21.9738 26.5056 22.2438 24.4373C27.5406 24.404 32.8374 24.3741 38.1375 24.3408C38.0942 29.1425 38.0508 33.9442 38.0108 38.7425C38.0108 39.0817 38.0008 39.4342 37.8475 39.7368C37.7175 39.9928 37.4975 40.1857 37.2775 40.3719C31.7474 45.0039 23.9338 46.7763 16.937 44.9873C13.2103 44.033 9.69021 42.0844 7.17682 39.1781C4.64343 36.2486 3.22674 32.4678 2.74006 28.6337C2.22338 24.5769 2.72673 20.3439 4.51676 16.6662C6.39347 12.8122 9.69354 9.68313 13.617 7.95068C18.0037 6.01538 23.3838 5.77596 27.9773 7.08944C31.9407 8.22335 35.5708 10.7173 37.7041 14.2354C35.9141 15.8282 33.8807 17.145 31.6974 18.1326C29.6073 14.9304 25.8772 12.8421 22.0471 12.7823C18.2171 12.7224 14.4036 14.7176 12.3136 17.9198C10.8236 20.2042 10.2136 22.9775 10.2002 25.7009C10.1836 29.1225 11.1436 32.6606 13.447 35.1978C15.417 37.3692 18.2671 38.6627 21.1871 38.952C24.1072 39.2413 27.0839 38.5663 29.7073 37.2561C29.974 37.1231 30.2507 36.9701 30.4073 36.7174C30.5573 36.4747 30.574 36.1721 30.584 35.8861C30.6473 34.167 30.6507 32.4478 30.594 30.7253Z"
      fill="#E82C3D"
    />
    <path
      d="M84.1785 2.607V14.9636L83.6618 15.5322L75.1983 24.8064C71.9615 21.4179 66.7814 20.999 64.0014 24.8829C61.6313 28.2048 61.6847 33.6283 64.2714 36.8405C67.3448 40.6612 73.0216 39.4973 75.585 35.793C78.305 31.8725 80.4884 28.0518 83.9485 24.4539L84.0418 45.0704C81.5318 45.0638 79.5917 45.3631 77.3317 45.0073C76.4283 44.861 76.945 43.0354 76.4283 42.1343C73.3082 45.2866 69.3448 46.3806 64.6881 45.4096C55.5045 43.4976 52.7345 31.5334 56.0545 23.2003C57.5979 19.3164 61.0747 16.7426 64.2481 16.0111C68.9215 14.947 72.7449 15.7883 76.3283 18.8542L76.5283 2.53717C79.115 2.15809 81.4251 1.99848 84.1818 2.607H84.1785Z"
      fill="#E82C3D"
    />
    <path
      d="M83.6618 15.5322C83.6551 15.5555 83.6451 15.5722 83.6385 15.5954L75.1983 24.8097L83.6618 15.5356V15.5322Z"
      fill="#E82C3D"
    />
    <path
      d="M128.996 43.6007C126.026 41.5756 125.413 38.0774 125.999 35.128C127.536 27.3967 138.916 27.7958 144.54 26.7084C145.6 23.9751 142.446 21.4878 139.803 21.4545C136.75 21.4179 134.283 22.3357 133.46 25.5279C131.083 25.6211 129.046 25.7341 126.449 25.3883C126.883 16.5997 137.263 14.2919 144.603 16.2272C149.227 17.4443 152.33 21.3348 152.343 26.1431L152.393 44.9674C149.873 45.3032 147.653 45.0738 145.193 45.137C144.86 44.0263 145.366 43.2582 144.843 42.1309C140.706 46.1944 134.093 47.0722 128.999 43.6007H128.996ZM137.32 39.9895C142.036 40.0393 145.473 36.6609 144.706 32.1485C141.073 32.3746 132.03 32.5343 133.496 37.8513C133.876 39.2313 135.203 39.9695 137.316 39.9928L137.32 39.9895Z"
      fill="#E82C3D"
    />
    <path
      d="M112.216 44.9773C109.636 45.2866 107.269 45.2001 104.802 44.9707L104.566 16.317L111.572 16.2605C112.249 17.1151 111.732 18.0794 112.512 19.3796C115.356 16.1142 119.736 15.1166 124.119 15.8814C124.396 18.1991 124.296 20.3073 124.223 22.8012C121.303 22.6915 118.713 22.0398 116.193 23.8055C110.202 27.9986 112.862 37.183 112.216 44.9773Z"
      fill="#E82C3D"
    />
    <path
      d="M50.0671 16.2372L42.4269 16.2479L42.4674 45.1376L50.1075 45.127L50.0671 16.2372Z"
      fill="#E82C3D"
    />
    <path
      d="M98.2521 16.2306H90.6486V45.1237H98.2521V16.2306Z"
      fill="#E82C3D"
    />
    <path
      d="M74.5983 34.7988C71.9149 39.0451 69.7682 31.7794 66.0048 28.3112C65.3447 27.7027 65.2747 26.6851 65.6981 26.1498C67.6181 23.709 71.1482 28.9164 72.6716 30.2432C74.5583 27.3768 86.8719 12.7424 88.9653 14.7641C89.2586 15.0468 89.4753 15.8282 88.9586 16.3735C83.5318 22.083 78.835 28.1017 74.5983 34.8021V34.7988Z"
      fill="#158DE0"
    />
    <path
      d="M92.482 3.99363C94.8787 2.84974 97.6121 3.80741 98.4888 6.21157C99.1255 7.954 98.6888 10.6907 96.0654 11.6583C94.452 12.2536 91.902 11.8346 90.8753 10.0755C89.6786 8.03048 89.9853 5.18407 92.482 3.99363Z"
      fill="#E82C3D"
    />
    <path
      d="M44.411 3.977C46.881 2.81981 49.2711 3.96037 50.2244 6.00873C51.1444 7.9806 50.3411 10.5543 48.2244 11.6317C46.351 12.5827 44.0009 11.7182 42.8076 10.1287C41.4009 8.25992 42.0109 5.10759 44.4143 3.98033L44.411 3.977Z"
      fill="#E82C3D"
    />
  </g>
</svg>
